<svg width="20" height="20" viewBox="0 0 20 20" fill="none" xmlns="http://www.w3.org/2000/svg">
<g clip-path="url(#clip0_71_639)">
<path d="M9.16675 3.91835C9.16658 3.80227 9.13203 3.68885 9.06747 3.59239C9.0029 3.49594 8.91121 3.42077 8.80396 3.37637C8.69671 3.33197 8.57872 3.32034 8.46487 3.34294C8.35101 3.36554 8.24641 3.42135 8.16425 3.50335L5.34425 6.32251C5.23542 6.43199 5.10594 6.51879 4.96333 6.57787C4.82071 6.63694 4.66778 6.66713 4.51341 6.66668H2.50008C2.27907 6.66668 2.06711 6.75448 1.91083 6.91076C1.75455 7.06704 1.66675 7.279 1.66675 7.50001V12.5C1.66675 12.721 1.75455 12.933 1.91083 13.0893C2.06711 13.2455 2.27907 13.3333 2.50008 13.3333H4.51341C4.66778 13.3329 4.82071 13.3631 4.96333 13.4222C5.10594 13.4812 5.23542 13.568 5.34425 13.6775L8.16341 16.4975C8.24558 16.5798 8.35034 16.6359 8.46441 16.6587C8.57848 16.6814 8.69673 16.6698 8.80419 16.6252C8.91164 16.5807 9.00345 16.5053 9.068 16.4085C9.13254 16.3117 9.16691 16.198 9.16675 16.0817V3.91835Z" stroke="#FDC700" stroke-width="1.66667" stroke-linecap="round" stroke-linejoin="round"/>
<path d="M13.3333 7.5C13.8742 8.22123 14.1666 9.09846 14.1666 10C14.1666 10.9015 13.8742 11.7788 13.3333 12.5" stroke="#FDC700" stroke-width="1.66667" stroke-linecap="round" stroke-linejoin="round"/>
<path d="M16.1367 15.3033C16.8332 14.6069 17.3856 13.7801 17.7625 12.8701C18.1395 11.9602 18.3335 10.9849 18.3335 9.99999C18.3335 9.01507 18.1395 8.03979 17.7625 7.12984C17.3856 6.21989 16.8332 5.3931 16.1367 4.69666" stroke="#FDC700" stroke-width="1.66667" stroke-linecap="round" stroke-linejoin="round"/>
</g>
<defs>
<clipPath id="clip0_71_639">
<rect width="20" height="20" fill="white"/>
</clipPath>
</defs>
</svg>
