<svg width="32" height="32" viewBox="0 0 32 32" fill="none" xmlns="http://www.w3.org/2000/svg">
<path d="M16 17.3333V28" stroke="#FFFE00" stroke-width="2.66667" stroke-linecap="round" stroke-linejoin="round"/>
<path d="M5.33332 19.8653C4.34271 18.8532 3.59541 17.6289 3.14803 16.2852C2.70065 14.9415 2.56493 13.5136 2.75113 12.1097C2.93734 10.7058 3.44059 9.36265 4.22278 8.18203C5.00496 7.00141 6.04556 6.01427 7.26576 5.29539C8.48596 4.5765 9.85375 4.14472 11.2655 4.03276C12.6773 3.92079 14.0961 4.13157 15.4143 4.64913C16.7326 5.1667 17.9158 5.97747 18.8743 7.02004C19.8328 8.0626 20.5415 9.30963 20.9467 10.6667H23.3333C24.6207 10.6665 25.8739 11.0804 26.908 11.8472C27.942 12.6141 28.702 13.6931 29.0757 14.9251C29.4494 16.157 29.4169 17.4764 28.9831 18.6885C28.5493 19.9005 27.7372 20.9409 26.6667 21.656" stroke="#FFFE00" stroke-width="2.66667" stroke-linecap="round" stroke-linejoin="round"/>
<path d="M10.6667 22.6667L16 17.3333L21.3334 22.6667" stroke="#FFFE00" stroke-width="2.66667" stroke-linecap="round" stroke-linejoin="round"/>
</svg>
