<svg width="181" height="47" viewBox="0 0 181 47" fill="none" xmlns="http://www.w3.org/2000/svg">
<circle cx="23.2701" cy="23.2702" r="19" transform="rotate(15 23.2701 23.2702)" fill="#FFE042"/>
<path d="M21.9914 26.7507C22.4282 25.1209 21.4609 23.4456 19.8311 23.0089C18.2012 22.5721 16.5259 23.5394 16.0892 25.1692C15.6525 26.7991 16.6197 28.4744 18.2496 28.9111L17.4588 31.8622C14.1991 30.9888 12.2647 27.6382 13.1381 24.3785C14.0115 21.1188 17.3621 19.1843 20.6218 20.0578C23.8815 20.9312 25.816 24.2818 24.9426 27.5415C24.0691 30.8012 20.7185 32.7356 17.4588 31.8622L18.2496 28.9111C19.8794 29.3478 21.5547 28.3806 21.9914 26.7507Z" fill="#1635FB"/>
<path d="M27.8802 17.1144L23.4951 33.4796L20.544 32.6889L24.9291 16.3236L27.8802 17.1144Z" fill="#1635FB"/>
<path d="M36.0185 20.0139L16.1655 14.6944L16.9563 11.7432L36.8092 17.0628L36.0185 20.0139Z" fill="#1635FB"/>
<path d="M50.3993 17.7447V14.6782H64.8474V17.7447H59.4615V32.2702H55.7851V17.7447H50.3993ZM67.957 32.5193C67.1152 32.5193 66.365 32.3732 65.7065 32.0812C65.0479 31.7834 64.5268 31.3453 64.1431 30.7669C63.7652 30.1828 63.5762 29.4556 63.5762 28.5851C63.5762 27.8521 63.7108 27.2365 63.9799 26.7383C64.2491 26.2401 64.6156 25.8392 65.0794 25.5357C65.5433 25.2322 66.0701 25.0032 66.6599 24.8485C67.2555 24.6939 67.8797 24.5851 68.5325 24.5221C69.2999 24.442 69.9183 24.3675 70.3879 24.2988C70.8575 24.2243 71.1982 24.1155 71.4101 23.9724C71.622 23.8292 71.7279 23.6173 71.7279 23.3367V23.2852C71.7279 22.7412 71.5561 22.3203 71.2125 22.0225C70.8747 21.7247 70.3936 21.5758 69.7695 21.5758C69.1109 21.5758 68.5869 21.7218 68.1975 22.0139C67.8081 22.3002 67.5504 22.661 67.4244 23.0962L64.04 22.8213C64.2118 22.0196 64.5497 21.3267 65.0536 20.7426C65.5576 20.1528 66.2075 19.7004 67.0035 19.3854C67.8052 19.0647 68.7329 18.9044 69.7866 18.9044C70.5196 18.9044 71.2211 18.9903 71.8911 19.1621C72.5669 19.3339 73.1653 19.6001 73.6864 19.9609C74.2133 20.3217 74.6284 20.7855 74.9319 21.3525C75.2355 21.9137 75.3872 22.5865 75.3872 23.3711V32.2702H71.9169V30.4405H71.8138C71.602 30.8528 71.3185 31.2165 70.9634 31.5314C70.6084 31.8407 70.1818 32.084 69.6836 32.2616C69.1853 32.4334 68.6098 32.5193 67.957 32.5193ZM69.005 29.9939C69.5433 29.9939 70.0186 29.8879 70.4309 29.676C70.8432 29.4584 71.1667 29.1664 71.4015 28.7999C71.6363 28.4334 71.7537 28.0182 71.7537 27.5543V26.1542C71.6392 26.2286 71.4817 26.2974 71.2813 26.3604C71.0866 26.4176 70.8661 26.472 70.6198 26.5236C70.3736 26.5694 70.1274 26.6123 69.8811 26.6524C69.6349 26.6868 69.4115 26.7183 69.2111 26.7469C68.7816 26.8099 68.4065 26.9101 68.0858 27.0475C67.7652 27.185 67.5161 27.3711 67.3385 27.6059C67.161 27.8349 67.0722 28.1213 67.0722 28.4649C67.0722 28.9631 67.2526 29.3439 67.6134 29.6073C67.9799 29.865 68.4438 29.9939 69.005 29.9939ZM77.1268 32.2702V14.6782H80.786V21.2923H80.8977C81.058 20.9373 81.29 20.5765 81.5935 20.21C81.9027 19.8378 82.3036 19.5286 82.796 19.2823C83.2943 19.0304 83.9127 18.9044 84.6514 18.9044C85.6135 18.9044 86.5011 19.1563 87.3143 19.6603C88.1275 20.1585 88.7774 20.9115 89.2642 21.9194C89.7509 22.9216 89.9943 24.1785 89.9943 25.6903C89.9943 27.1621 89.7567 28.4047 89.2814 29.4183C88.8118 30.4262 88.1704 31.1907 87.3572 31.7118C86.5498 32.2272 85.645 32.4849 84.6429 32.4849C83.9328 32.4849 83.3286 32.3675 82.8304 32.1327C82.3379 31.8979 81.9342 31.603 81.6192 31.248C81.3043 30.8872 81.0638 30.5236 80.8977 30.1571H80.7345V32.2702H77.1268ZM80.7087 25.6732C80.7087 26.4577 80.8175 27.142 81.0351 27.7261C81.2527 28.3102 81.5677 28.7655 81.98 29.0919C82.3923 29.4126 82.8934 29.5729 83.4832 29.5729C84.0788 29.5729 84.5827 29.4097 84.995 29.0833C85.4074 28.7512 85.7195 28.2931 85.9313 27.709C86.1489 27.1191 86.2577 26.4405 86.2577 25.6732C86.2577 24.9115 86.1518 24.2415 85.9399 23.6631C85.728 23.0848 85.4159 22.6324 85.0036 22.3059C84.5913 21.9795 84.0845 21.8163 83.4832 21.8163C82.8877 21.8163 82.3837 21.9738 81.9714 22.2888C81.5648 22.6037 81.2527 23.0504 81.0351 23.6288C80.8175 24.2072 80.7087 24.8886 80.7087 25.6732ZM99.7289 26.6524V19.0762H103.388V32.2702H99.8749V29.8736H99.7375C99.4397 30.6467 98.9443 31.268 98.2514 31.7376C97.5642 32.2072 96.7253 32.442 95.7346 32.442C94.8527 32.442 94.0768 32.2415 93.4067 31.8407C92.7367 31.4398 92.2128 30.87 91.8348 30.1313C91.4626 29.3926 91.2736 28.5078 91.2679 27.477V19.0762H94.9271V26.8242C94.9329 27.603 95.1419 28.2186 95.5542 28.671C95.9665 29.1234 96.5191 29.3496 97.212 29.3496C97.653 29.3496 98.0653 29.2494 98.449 29.049C98.8327 28.8428 99.1419 28.5393 99.3767 28.1384C99.6172 27.7376 99.7346 27.2422 99.7289 26.6524ZM108.806 14.6782V32.2702H105.147V14.6782H108.806ZM114.332 32.5193C113.49 32.5193 112.74 32.3732 112.081 32.0812C111.423 31.7834 110.902 31.3453 110.518 30.7669C110.14 30.1828 109.951 29.4556 109.951 28.5851C109.951 27.8521 110.086 27.2365 110.355 26.7383C110.624 26.2401 110.99 25.8392 111.454 25.5357C111.918 25.2322 112.445 25.0032 113.035 24.8485C113.63 24.6939 114.254 24.5851 114.907 24.5221C115.675 24.442 116.293 24.3675 116.763 24.2988C117.232 24.2243 117.573 24.1155 117.785 23.9724C117.997 23.8292 118.103 23.6173 118.103 23.3367V23.2852C118.103 22.7412 117.931 22.3203 117.587 22.0225C117.249 21.7247 116.768 21.5758 116.144 21.5758C115.486 21.5758 114.962 21.7218 114.572 22.0139C114.183 22.3002 113.925 22.661 113.799 23.0962L110.415 22.8213C110.587 22.0196 110.924 21.3267 111.428 20.7426C111.932 20.1528 112.582 19.7004 113.378 19.3854C114.18 19.0647 115.108 18.9044 116.161 18.9044C116.894 18.9044 117.596 18.9903 118.266 19.1621C118.942 19.3339 119.54 19.6001 120.061 19.9609C120.588 20.3217 121.003 20.7855 121.307 21.3525C121.61 21.9137 121.762 22.5865 121.762 23.3711V32.2702H118.292V30.4405H118.189C117.977 30.8528 117.693 31.2165 117.338 31.5314C116.983 31.8407 116.557 32.084 116.058 32.2616C115.56 32.4334 114.985 32.5193 114.332 32.5193ZM115.38 29.9939C115.918 29.9939 116.393 29.8879 116.806 29.676C117.218 29.4584 117.542 29.1664 117.776 28.7999C118.011 28.4334 118.129 28.0182 118.129 27.5543V26.1542C118.014 26.2286 117.856 26.2974 117.656 26.3604C117.461 26.4176 117.241 26.472 116.995 26.5236C116.748 26.5694 116.502 26.6123 116.256 26.6524C116.01 26.6868 115.786 26.7183 115.586 26.7469C115.156 26.8099 114.781 26.9101 114.461 27.0475C114.14 27.185 113.891 27.3711 113.713 27.6059C113.536 27.8349 113.447 28.1213 113.447 28.4649C113.447 28.9631 113.627 29.3439 113.988 29.6073C114.355 29.865 114.819 29.9939 115.38 29.9939ZM127.932 32.2702V14.6782H134.872C136.201 14.6782 137.335 14.9158 138.274 15.3911C139.219 15.8607 139.938 16.5279 140.43 17.3926C140.928 18.2515 141.177 19.2623 141.177 20.4248C141.177 21.593 140.925 22.598 140.421 23.4398C139.918 24.2759 139.187 24.9173 138.231 25.3639C137.28 25.8106 136.129 26.0339 134.778 26.0339H130.131V23.0447H134.177C134.887 23.0447 135.477 22.9473 135.946 22.7526C136.416 22.5579 136.765 22.2659 136.994 21.8765C137.229 21.487 137.346 21.0032 137.346 20.4248C137.346 19.8407 137.229 19.3482 136.994 18.9473C136.765 18.5465 136.413 18.243 135.938 18.0368C135.468 17.8249 134.875 17.719 134.159 17.719H131.651V32.2702H127.932ZM137.432 24.2644L141.804 32.2702H137.699L133.421 24.2644H137.432ZM146.331 32.5193C145.49 32.5193 144.739 32.3732 144.081 32.0812C143.422 31.7834 142.901 31.3453 142.518 30.7669C142.14 30.1828 141.951 29.4556 141.951 28.5851C141.951 27.8521 142.085 27.2365 142.354 26.7383C142.623 26.2401 142.99 25.8392 143.454 25.5357C143.918 25.2322 144.445 25.0032 145.034 24.8485C145.63 24.6939 146.254 24.5851 146.907 24.5221C147.674 24.442 148.293 24.3675 148.762 24.2988C149.232 24.2243 149.573 24.1155 149.785 23.9724C149.996 23.8292 150.102 23.6173 150.102 23.3367V23.2852C150.102 22.7412 149.931 22.3203 149.587 22.0225C149.249 21.7247 148.768 21.5758 148.144 21.5758C147.485 21.5758 146.961 21.7218 146.572 22.0139C146.183 22.3002 145.925 22.661 145.799 23.0962L142.414 22.8213C142.586 22.0196 142.924 21.3267 143.428 20.7426C143.932 20.1528 144.582 19.7004 145.378 19.3854C146.18 19.0647 147.107 18.9044 148.161 18.9044C148.894 18.9044 149.596 18.9903 150.266 19.1621C150.941 19.3339 151.54 19.6001 152.061 19.9609C152.588 20.3217 153.003 20.7855 153.306 21.3525C153.61 21.9137 153.762 22.5865 153.762 23.3711V32.2702H150.291V30.4405H150.188C149.976 30.8528 149.693 31.2165 149.338 31.5314C148.983 31.8407 148.556 32.084 148.058 32.2616C147.56 32.4334 146.984 32.5193 146.331 32.5193ZM147.379 29.9939C147.918 29.9939 148.393 29.8879 148.805 29.676C149.218 29.4584 149.541 29.1664 149.776 28.7999C150.011 28.4334 150.128 28.0182 150.128 27.5543V26.1542C150.014 26.2286 149.856 26.2974 149.656 26.3604C149.461 26.4176 149.24 26.472 148.994 26.5236C148.748 26.5694 148.502 26.6123 148.256 26.6524C148.009 26.6868 147.786 26.7183 147.586 26.7469C147.156 26.8099 146.781 26.9101 146.46 27.0475C146.14 27.185 145.89 27.3711 145.713 27.6059C145.535 27.8349 145.447 28.1213 145.447 28.4649C145.447 28.9631 145.627 29.3439 145.988 29.6073C146.354 29.865 146.818 29.9939 147.379 29.9939ZM166.41 22.8385L163.06 23.0447C163.003 22.7583 162.88 22.5007 162.691 22.2716C162.502 22.0368 162.253 21.8507 161.944 21.7132C161.64 21.5701 161.276 21.4985 160.853 21.4985C160.286 21.4985 159.808 21.6188 159.418 21.8593C159.029 22.0941 158.834 22.409 158.834 22.8042C158.834 23.1191 158.96 23.3854 159.212 23.603C159.464 23.8206 159.896 23.9953 160.509 24.127L162.897 24.608C164.18 24.8714 165.136 25.2952 165.766 25.8793C166.396 26.4634 166.711 27.2308 166.711 28.1814C166.711 29.0461 166.456 29.8049 165.946 30.4577C165.442 31.1105 164.75 31.6202 163.868 31.9867C162.992 32.3475 161.981 32.5279 160.835 32.5279C159.089 32.5279 157.697 32.1642 156.661 31.4369C155.63 30.7039 155.026 29.7075 154.848 28.4477L158.447 28.2587C158.556 28.7913 158.82 29.1979 159.238 29.4785C159.656 29.7533 160.191 29.8908 160.844 29.8908C161.485 29.8908 162.001 29.7677 162.39 29.5214C162.785 29.2694 162.986 28.9459 162.992 28.5508C162.986 28.2186 162.845 27.9466 162.571 27.7347C162.296 27.5171 161.872 27.351 161.299 27.2365L159.014 26.7813C157.726 26.5236 156.767 26.0769 156.137 25.4412C155.513 24.8056 155.201 23.9953 155.201 23.0103C155.201 22.1628 155.43 21.4326 155.888 20.8199C156.352 20.2072 157.002 19.7347 157.838 19.4026C158.679 19.0704 159.664 18.9044 160.793 18.9044C162.459 18.9044 163.77 19.2566 164.727 19.9609C165.689 20.6653 166.25 21.6245 166.41 22.8385ZM171.609 32.5193C170.768 32.5193 170.017 32.3732 169.359 32.0812C168.7 31.7834 168.179 31.3453 167.795 30.7669C167.418 30.1828 167.229 29.4556 167.229 28.5851C167.229 27.8521 167.363 27.2365 167.632 26.7383C167.901 26.2401 168.268 25.8392 168.732 25.5357C169.196 25.2322 169.722 25.0032 170.312 24.8485C170.908 24.6939 171.532 24.5851 172.185 24.5221C172.952 24.442 173.571 24.3675 174.04 24.2988C174.51 24.2243 174.851 24.1155 175.062 23.9724C175.274 23.8292 175.38 23.6173 175.38 23.3367V23.2852C175.38 22.7412 175.209 22.3203 174.865 22.0225C174.527 21.7247 174.046 21.5758 173.422 21.5758C172.763 21.5758 172.239 21.7218 171.85 22.0139C171.46 22.3002 171.203 22.661 171.077 23.0962L167.692 22.8213C167.864 22.0196 168.202 21.3267 168.706 20.7426C169.21 20.1528 169.86 19.7004 170.656 19.3854C171.458 19.0647 172.385 18.9044 173.439 18.9044C174.172 18.9044 174.873 18.9903 175.544 19.1621C176.219 19.3339 176.818 19.6001 177.339 19.9609C177.866 20.3217 178.281 20.7855 178.584 21.3525C178.888 21.9137 179.04 22.5865 179.04 23.3711V32.2702H175.569V30.4405H175.466C175.254 30.8528 174.971 31.2165 174.616 31.5314C174.261 31.8407 173.834 32.084 173.336 32.2616C172.838 32.4334 172.262 32.5193 171.609 32.5193ZM172.657 29.9939C173.196 29.9939 173.671 29.8879 174.083 29.676C174.496 29.4584 174.819 29.1664 175.054 28.7999C175.289 28.4334 175.406 28.0182 175.406 27.5543V26.1542C175.292 26.2286 175.134 26.2974 174.934 26.3604C174.739 26.4176 174.518 26.472 174.272 26.5236C174.026 26.5694 173.78 26.6123 173.533 26.6524C173.287 26.6868 173.064 26.7183 172.863 26.7469C172.434 26.8099 172.059 26.9101 171.738 27.0475C171.418 27.185 171.168 27.3711 170.991 27.6059C170.813 27.8349 170.725 28.1213 170.725 28.4649C170.725 28.9631 170.905 29.3439 171.266 29.6073C171.632 29.865 172.096 29.9939 172.657 29.9939Z" fill="#1635FB"/>
</svg>
