<svg width="11" height="11" viewBox="0 0 11 11" fill="none" xmlns="http://www.w3.org/2000/svg">
<path d="M4.46763 7.24996C4.423 7.07692 4.33281 6.91902 4.20645 6.79266C4.08009 6.6663 3.92218 6.57611 3.74915 6.53147L0.681733 5.74049C0.6294 5.72564 0.58334 5.69412 0.550542 5.65072C0.517745 5.60732 0.5 5.5544 0.5 5.5C0.5 5.4456 0.517745 5.39268 0.550542 5.34928C0.58334 5.30588 0.6294 5.27436 0.681733 5.25951L3.74915 4.46803C3.92212 4.42343 4.07999 4.33332 4.20634 4.20705C4.33269 4.08079 4.42292 3.92298 4.46763 3.75004L5.25861 0.68262C5.27332 0.630081 5.3048 0.583793 5.34827 0.550821C5.39174 0.517848 5.4448 0.5 5.49936 0.5C5.55391 0.5 5.60697 0.517848 5.65044 0.550821C5.69391 0.583793 5.7254 0.630081 5.7401 0.68262L6.53058 3.75004C6.57522 3.92307 6.66541 4.08098 6.79176 4.20734C6.91812 4.3337 7.07603 4.42389 7.24906 4.46853L10.3165 5.25901C10.3692 5.27356 10.4157 5.30501 10.4489 5.34854C10.482 5.39207 10.5 5.44528 10.5 5.5C10.5 5.55472 10.482 5.60792 10.4489 5.65146C10.4157 5.69499 10.3692 5.72644 10.3165 5.74099L7.24906 6.53147C7.07603 6.57611 6.91812 6.6663 6.79176 6.79266C6.66541 6.91902 6.57522 7.07692 6.53058 7.24996L5.7396 10.3174C5.7249 10.3699 5.69341 10.4162 5.64994 10.4492C5.60648 10.4822 5.55341 10.5 5.49886 10.5C5.4443 10.5 5.39124 10.4822 5.34777 10.4492C5.3043 10.4162 5.27282 10.3699 5.25811 10.3174L4.46763 7.24996Z" stroke="#FFE042" stroke-linecap="round" stroke-linejoin="round"/>
</svg>
